<?xml version="1.0" encoding="UTF-8"?>
<!DOCTYPE svg PUBLIC "-//W3C//DTD SVG 1.1//EN" "http://www.w3.org/Graphics/SVG/1.1/DTD/svg11.dtd">
<!-- Creator: CorelDRAW 2017 -->
<svg xmlns="http://www.w3.org/2000/svg" xml:space="preserve" width="1.5in" height="1.5in" version="1.1" style="shape-rendering:geometricPrecision; text-rendering:geometricPrecision; image-rendering:optimizeQuality; fill-rule:evenodd; clip-rule:evenodd"
viewBox="0 0 7111.11 7111.11"
 xmlns:xlink="http://www.w3.org/1999/xlink">
 <defs>
  <style type="text/css">
   <![CDATA[
    .fil4 {fill:black}
    .fil3 {fill:#990000}
    .fil2 {fill:black;fill-rule:nonzero}
    .fil0 {fill:white;fill-rule:nonzero}
    .fil1 {fill:url(#id0);fill-rule:nonzero}
   ]]>
  </style>
  <linearGradient id="id0" gradientUnits="userSpaceOnUse" x1="4625.98" y1="6919.04" x2="2485.13" y2="164.3">
   <stop offset="0" style="stop-opacity:1; stop-color:#4D4D4D"/>
   <stop offset="1" style="stop-opacity:1; stop-color:#E6E6E6"/>
  </linearGradient>
 </defs>
 <g id="Layer_x0020_1">
  <metadata id="CorelCorpID_0Corel-Layer"/>
  <g id="expressify-logo">
   <g id="cloud">
    <path class="fil0" d="M2912.18 727.98c-14.38,59.44 -74.24,95.98 -133.68,81.59 -59.44,-14.38 -95.98,-74.24 -81.59,-133.68 10.28,-42.5 23.54,-83.65 39.51,-123.26 -110.4,-39.46 -226.3,-56.73 -341.22,-52.06 -143.91,5.85 -286.53,46.17 -415.15,120.43l-0.43 0c-137.96,79.65 -250.08,193.36 -328.36,327.44 -76.39,130.84 -120.03,280.27 -123.51,435.56 52.91,18.22 104.86,41.74 155.16,70.78l0.43 0c12.26,7.07 25.35,15.14 39.27,24.18 15,9.74 27.72,18.41 38.12,25.96 49.62,35.95 60.69,105.33 24.74,154.94 -35.95,49.62 -105.33,60.69 -154.94,24.74 -11.43,-8.31 -20.96,-14.93 -28.58,-19.88 -8.7,-5.65 -18.61,-11.69 -29.72,-18.1l0.11 -0.19c-158.06,-91.13 -338.36,-109.58 -502.11,-65.71 -163.59,43.83 -310.45,150.06 -401.81,308.29 -81.46,141.1 -105.48,301.45 -77.43,452.15 26.54,142.57 99.93,276.5 215.55,377.2 16.03,-4.73 32.22,-9.13 48.57,-13.17 59.44,-14.62 119.49,21.72 134.11,81.16 14.62,59.44 -21.72,119.49 -81.16,134.11 -201.6,49.85 -373.13,165.13 -494.18,319.77 -120.98,154.54 -191.66,348.83 -191.66,556.83 0,141.58 33.13,278.96 94.43,402.17 43.07,86.56 99.96,166.17 168.96,235.39 34.46,-56.93 75.76,-110.61 123.77,-159.81 42.67,-43.86 112.82,-44.83 156.68,-2.17 43.86,42.67 44.83,112.82 2.17,156.68 -103.43,105.98 -165.3,239.98 -182.82,379.59 -17.58,140.14 9.15,285.46 82.98,413.52l0.19 -0.11c40.2,69.63 92.68,130.93 154.37,181.37 34.76,28.43 72.24,53.28 111.91,74.13 8,-35.54 18.73,-70.87 32.3,-105.72 22.05,-57.05 86.18,-85.42 143.23,-63.37 57.05,22.05 85.42,86.18 63.37,143.23 -46.09,118.39 -45.53,244.77 -5.93,357.44 39.47,112.31 117.73,210.91 227.19,274.23l0.82 0.22c122.71,70.85 262.73,85.2 389.88,51.13 127.06,-34.04 241.13,-116.56 312.08,-239.44l9.21 -16.69c28.52,-54.17 95.57,-74.96 149.74,-46.44 54.17,28.52 74.96,95.57 46.44,149.74l-6.46 12.09 -7.08 12.41c-24.65,42.7 -52.94,81.98 -84.24,117.69 56.06,214.69 180.25,397.41 345.8,527.1 168.89,132.31 381.23,209.63 608.52,209.63 220.49,0 427.45,-73.02 594.28,-198.96 144.12,-108.81 258.44,-257.17 325.83,-432.1 2.12,-15.09 7.32,-29.69 15.36,-42.77 4.63,-13.89 8.98,-27.93 13.02,-42.11 16.78,-58.96 78.19,-93.17 137.15,-76.39 58.96,16.78 93.17,78.19 76.39,137.15 -2.61,9.15 -5.32,18.24 -8.13,27.28 97.71,140.09 239.26,234.41 394.73,275.13 171.78,45 360.52,24.99 526.11,-70.49l-0.11 -0.19c129.54,-74.79 228.04,-186.67 286.82,-316.48 55.11,-121.72 75.33,-259.33 53.49,-397.07 -27.65,-9.83 -55.06,-21.09 -82.12,-33.87 -55.37,-26.13 -79.08,-92.2 -52.95,-147.57 26.13,-55.37 92.2,-79.08 147.57,-52.95 155.61,73.44 326.49,81.06 480.03,33.04 153.39,-47.97 289.42,-151.6 375.5,-300.7l0.19 0.11c72.37,-125.52 99.63,-267.64 84.13,-405.16 -12.73,-113.03 -54.57,-222.78 -124.15,-317.39 -31.99,10.18 -64.72,18.85 -98.13,25.92 -59.93,12.7 -118.81,-25.58 -131.51,-85.5 -12.7,-59.93 25.58,-118.81 85.5,-131.51 38.61,-8.17 76.06,-19.07 112.17,-32.44 14.7,-10.67 31.37,-17.25 48.5,-19.81 115.29,-51.59 215.02,-129.3 292.55,-224.95 111.38,-137.42 176.94,-312.38 176.94,-500.5 0,-176.91 -58.02,-342.83 -158.26,-476.65 -92.37,-123.31 -220.41,-219.83 -371.82,-273.16 -6.42,3.96 -12.92,7.86 -19.5,11.67l0.11 0.19c-17.8,10.28 -35.98,19.83 -54.46,28.61 -19.21,9.13 -37.85,17.15 -55.82,23.99 -57.29,21.81 -121.42,-6.95 -143.23,-64.24 -21.81,-57.29 6.95,-121.42 64.24,-143.23 14.57,-5.55 27.98,-11.24 40.2,-17.05 12.94,-6.15 25.61,-12.81 37.96,-19.94l0.43 0c129.6,-74.82 216.71,-195.46 252.76,-330 36.07,-134.63 20.89,-282.84 -54.08,-412.7 -72.11,-124.9 -186.98,-210.71 -316.04,-248.96 -117.82,-34.91 -247.49,-30.02 -367.29,21.07 -11.85,47.15 -27.17,93.96 -46.1,140.12 -23.25,56.57 -87.96,83.58 -144.53,60.33 -56.57,-23.25 -83.58,-87.96 -60.33,-144.53 76.12,-185.55 77.7,-385.22 16.77,-563.74 -60.87,-178.32 -184.09,-335.2 -357.61,-435.38 -125.87,-72.67 -266.58,-108.48 -407.1,-107.54 -115.01,0.78 -229.85,26.27 -336.25,76.39 7.33,27.55 13.39,55.66 18.1,84.29 9.83,60.41 -31.17,117.34 -91.58,127.17 -60.41,9.83 -117.34,-31.17 -127.17,-91.58 -26.27,-159.65 -108.47,-298.11 -224.57,-396.67 -116.05,-98.51 -266.17,-157.11 -428.33,-157.11 -152.83,0 -295.65,52.24 -409.14,141.55 -113.74,89.49 -198.2,215.97 -234.07,364.21z"/>
    <path class="fil1" d="M2912.18 727.98c-14.38,59.44 -74.24,95.98 -133.68,81.59 -59.44,-14.38 -95.98,-74.24 -81.59,-133.68 10.28,-42.5 23.54,-83.65 39.51,-123.26 -110.4,-39.46 -226.3,-56.73 -341.22,-52.06 -143.91,5.85 -286.53,46.17 -415.15,120.43l-0.43 0c-137.96,79.65 -250.08,193.36 -328.36,327.44 -76.39,130.84 -120.03,280.27 -123.51,435.56 52.91,18.22 104.86,41.74 155.16,70.78l0.43 0c12.26,7.07 25.35,15.14 39.27,24.18 15,9.74 27.72,18.41 38.12,25.96 49.62,35.95 60.69,105.33 24.74,154.94 -35.95,49.62 -105.33,60.69 -154.94,24.74 -11.43,-8.31 -20.96,-14.93 -28.58,-19.88 -8.7,-5.65 -18.61,-11.69 -29.72,-18.1l0.11 -0.19c-158.06,-91.13 -338.36,-109.58 -502.11,-65.71 -163.59,43.83 -310.45,150.06 -401.81,308.29 -81.46,141.1 -105.48,301.45 -77.43,452.15 26.54,142.57 99.93,276.5 215.55,377.2 16.03,-4.73 32.22,-9.13 48.57,-13.17 59.44,-14.62 119.49,21.72 134.11,81.16 14.62,59.44 -21.72,119.49 -81.16,134.11 -201.6,49.85 -373.13,165.13 -494.18,319.77 -120.98,154.54 -191.66,348.83 -191.66,556.83 0,141.58 33.13,278.96 94.43,402.17 43.07,86.56 99.96,166.17 168.96,235.39 34.46,-56.93 75.76,-110.61 123.77,-159.81 42.67,-43.86 112.82,-44.83 156.68,-2.17 43.86,42.67 44.83,112.82 2.17,156.68 -103.43,105.98 -165.3,239.98 -182.82,379.59 -17.58,140.14 9.15,285.46 82.98,413.52l0.19 -0.11c40.2,69.63 92.68,130.93 154.37,181.37 34.76,28.43 72.24,53.28 111.91,74.13 8,-35.54 18.73,-70.87 32.3,-105.72 22.05,-57.05 86.18,-85.42 143.23,-63.37 57.05,22.05 85.42,86.18 63.37,143.23 -46.09,118.39 -45.53,244.77 -5.93,357.44 39.47,112.31 117.73,210.91 227.19,274.23l0.82 0.22c122.71,70.85 262.73,85.2 389.88,51.13 127.06,-34.04 241.13,-116.56 312.08,-239.44l9.21 -16.69c28.52,-54.17 95.57,-74.96 149.74,-46.44 54.17,28.52 74.96,95.57 46.44,149.74l-6.46 12.09 -7.08 12.41c-24.65,42.7 -52.94,81.98 -84.24,117.69 56.06,214.69 180.25,397.41 345.8,527.1 168.89,132.31 381.23,209.63 608.52,209.63 220.49,0 427.45,-73.02 594.28,-198.96 144.12,-108.81 258.44,-257.17 325.83,-432.1 2.12,-15.09 7.32,-29.69 15.36,-42.77 4.63,-13.89 8.98,-27.93 13.02,-42.11 16.78,-58.96 78.19,-93.17 137.15,-76.39 58.96,16.78 93.17,78.19 76.39,137.15 -2.61,9.15 -5.32,18.24 -8.13,27.28 97.71,140.09 239.26,234.41 394.73,275.13 171.78,45 360.52,24.99 526.11,-70.49l-0.11 -0.19c129.54,-74.79 228.04,-186.67 286.82,-316.48 55.11,-121.72 75.33,-259.33 53.49,-397.07 -27.65,-9.83 -55.06,-21.09 -82.12,-33.87 -55.37,-26.13 -79.08,-92.2 -52.95,-147.57 26.13,-55.37 92.2,-79.08 147.57,-52.95 155.61,73.44 326.49,81.06 480.03,33.04 153.39,-47.97 289.42,-151.6 375.5,-300.7l0.19 0.11c72.37,-125.52 99.63,-267.64 84.13,-405.16 -12.73,-113.03 -54.57,-222.78 -124.15,-317.39 -31.99,10.18 -64.72,18.85 -98.13,25.92 -59.93,12.7 -118.81,-25.58 -131.51,-85.5 -12.7,-59.93 25.58,-118.81 85.5,-131.51 38.61,-8.17 76.06,-19.07 112.17,-32.44 14.7,-10.67 31.37,-17.25 48.5,-19.81 115.29,-51.59 215.02,-129.3 292.55,-224.95 111.38,-137.42 176.94,-312.38 176.94,-500.5 0,-176.91 -58.02,-342.83 -158.26,-476.65 -92.37,-123.31 -220.41,-219.83 -371.82,-273.16 -6.42,3.96 -12.92,7.86 -19.5,11.67l0.11 0.19c-17.8,10.28 -35.98,19.83 -54.46,28.61 -19.21,9.13 -37.85,17.15 -55.82,23.99 -57.29,21.81 -121.42,-6.95 -143.23,-64.24 -21.81,-57.29 6.95,-121.42 64.24,-143.23 14.57,-5.55 27.98,-11.24 40.2,-17.05 12.94,-6.15 25.61,-12.81 37.96,-19.94l0.43 0c129.6,-74.82 216.71,-195.46 252.76,-330 36.07,-134.63 20.89,-282.84 -54.08,-412.7 -72.11,-124.9 -186.98,-210.71 -316.04,-248.96 -117.82,-34.91 -247.49,-30.02 -367.29,21.07 -11.85,47.15 -27.17,93.96 -46.1,140.12 -23.25,56.57 -87.96,83.58 -144.53,60.33 -56.57,-23.25 -83.58,-87.96 -60.33,-144.53 76.12,-185.55 77.7,-385.22 16.77,-563.74 -60.87,-178.32 -184.09,-335.2 -357.61,-435.38 -125.87,-72.67 -266.58,-108.48 -407.1,-107.54 -115.01,0.78 -229.85,26.27 -336.25,76.39 7.33,27.55 13.39,55.66 18.1,84.29 9.83,60.41 -31.17,117.34 -91.58,127.17 -60.41,9.83 -117.34,-31.17 -127.17,-91.58 -26.27,-159.65 -108.47,-298.11 -224.57,-396.67 -116.05,-98.51 -266.17,-157.11 -428.33,-157.11 -152.83,0 -295.65,52.24 -409.14,141.55 -113.74,89.49 -198.2,215.97 -234.07,364.21zm2862.67 658.9c133.49,-32.7 271.17,-28.05 399.03,9.84 181.66,53.83 343.52,174.93 445.39,351.38 105.69,183.06 127.24,391.4 76.65,580.23 -28.33,105.74 -79.33,205.49 -150.9,291.37 144.78,71.59 268.35,175.71 362.69,301.67 128.83,172 203.41,384.2 203.41,609.46 0,239.88 -84.22,463.73 -227.29,640.25 -76.22,94.04 -169.16,174.51 -274.95,236.67 76.7,117.16 123.35,249.3 138.63,384.96 20.59,182.71 -16.01,372.11 -112.96,540.04l0 0.43c-114.89,198.98 -296.51,337.32 -501.37,401.39 -105.7,33.06 -217.61,46.31 -329.75,37.9 10.14,153.07 -18.43,303.9 -79.98,439.85 -77.51,171.18 -207.31,318.65 -377.96,417.18l-0.43 0c-218.09,125.91 -466.43,152.39 -692.24,93.24 -164.54,-43.1 -317.15,-131.44 -437.55,-259.67 -82.57,148.22 -194.74,275.86 -327.57,376.15 -204.67,154.52 -458.21,244.11 -727.95,244.11 -277.53,0 -537.45,-94.92 -744.81,-257.37 -177.94,-139.41 -316.89,-328.43 -394.72,-549.76 -55.8,32.12 -115.42,56.69 -177.19,73.24 -181.72,48.7 -382.18,27.98 -558.28,-73.7l0.11 -0.19c-157.29,-90.91 -269.65,-232.29 -326.2,-393.19 -19,-54.07 -31.69,-110.37 -37.67,-167.7 -87.22,-33.94 -167.65,-81.01 -238.63,-139.05 -81.74,-66.85 -151.62,-148.67 -205.59,-242.14l0 -0.43c-99.09,-171.63 -135.12,-365.24 -111.81,-551 5.59,-44.53 14.57,-88.65 26.88,-131.93 -115.1,-98.89 -207.75,-218.87 -273.93,-351.89 -76.52,-153.8 -117.87,-324.99 -117.87,-501.13 0,-258.2 88.28,-500.07 239.4,-693.11 93.23,-119.1 210.36,-219.45 345.38,-293.42 -110.69,-122.94 -182.39,-272.23 -211.67,-429.44 -37.4,-200.9 -5.31,-414.8 103.46,-603.19 121.97,-211.26 318.02,-353.08 536.36,-411.59 95.51,-25.59 195.34,-35.2 295.14,-27.67 10.46,-179.88 63.37,-351.5 151.34,-502.19 96.82,-165.83 236.66,-307.17 409.64,-407.11l-0.11 -0.19c160.09,-92.43 337.92,-142.63 517.58,-149.94 155.37,-6.32 311.98,19.47 459.51,77.79 46.86,-63.15 101.78,-119.5 163.07,-167.72 151.78,-119.43 342.47,-189.29 546.29,-189.29 216.07,0 416.39,78.35 571.56,210.06 79.42,67.42 146.96,148.86 198.69,240.94 132.87,-60.76 275.68,-91.67 418.67,-92.64 178.69,-1.2 357.8,44.43 518.21,137.05 222.22,128.29 379.81,328.62 457.44,556.04 36.61,107.26 55.44,220.65 54.88,335.42z"/>
   </g>
   <g id="logo">
    <path id="X" class="fil2" d="M3134.33 747.94l0 198.87c-129.82,17.96 -222.35,53.86 -278.98,104.96 -56.62,51.1 -84.24,121.53 -84.24,209.92 0,75.96 24.86,169.87 75.96,283.12 51.1,113.25 124.3,248.59 218.21,404.65l586.96 983.32 578.67 -934.98c87.01,-139.49 151.92,-251.35 194.73,-335.6 42.81,-84.24 73.2,-153.3 91.15,-209.92 16.57,-56.62 26.24,-114.63 26.24,-174.02 0,-84.24 -24.86,-154.68 -73.2,-212.69 -48.34,-58 -129.82,-98.06 -243.07,-118.77l0 -198.87 1501.22 0 0 198.87c-99.44,31.77 -189.2,78.72 -269.31,140.87 -78.72,62.15 -164.35,151.92 -254.12,270.69 -91.15,118.77 -219.59,306.6 -386.7,563.48l-914.27 1415.59 1027.51 1691.81c145.02,238.92 249.98,407.41 313.5,502.71 63.53,96.67 122.92,176.78 178.16,243.07 55.24,66.29 114.63,122.91 178.16,172.63 63.53,48.34 142.25,89.77 236.17,124.3l0 198.87 -1776.06 0 0 -198.87c124.3,-20.72 215.44,-55.24 274.83,-102.2 59.39,-46.95 89.77,-118.77 89.77,-212.68 0,-75.96 -19.33,-158.82 -59.39,-251.35 -38.67,-91.15 -98.06,-204.4 -179.54,-339.74l-731.96 -1222.24 -773.4 1266.44c-129.82,214.07 -194.73,389.46 -194.73,526.19 0,89.77 24.86,161.58 73.2,218.21 48.33,58 129.82,96.67 243.07,117.39l0 198.87 -1528.84 0 0 -198.87c99.44,-29 180.92,-64.91 245.83,-106.34 64.91,-41.43 127.06,-95.29 186.44,-160.2 59.39,-64.91 125.68,-146.39 198.87,-247.21 71.81,-99.44 187.82,-273.45 348.03,-522.04l954.32 -1488.79 -1140.76 -1876.87c-107.72,-172.63 -189.2,-298.31 -245.83,-377.03 -55.24,-77.34 -106.34,-140.87 -153.3,-189.2 -46.96,-48.34 -89.77,-82.87 -127.06,-103.58 -37.29,-20.72 -81.48,-38.67 -129.82,-53.86l0 -198.87 1723.57 0z"/>
    <path id="open_x0020_ellipse" class="fil2" d="M624.33 3511.13c102.75,-3.28 179.27,-27.87 230.1,-74.33 50.83,-46.46 75.97,-106.57 75.97,-180.36 0,-38.26 -12.57,-114.23 -37.71,-227.36 -25.14,-113.14 -37.71,-213.7 -37.71,-302.79 0,-220.81 62.31,-386.41 186.92,-496.81 124.07,-110.4 311.54,-167.79 562.4,-172.16l41.54 0 0 121.88 -23.5 0c-155.22,0 -276.01,39.9 -364,120.79 -87.45,80.34 -131.17,213.15 -131.17,397.89 0,74.33 10.93,166.7 32.25,277.1 21.31,109.86 31.7,188.01 31.7,235.02 0,90.73 -26.23,165.06 -79.8,223.54 -53.56,57.94 -116.96,101.11 -190.74,128.99l0 28.42c73.78,27.87 137.18,71.05 190.74,128.98 53.56,58.48 79.8,132.81 79.8,223.54 0,47 -10.38,125.7 -31.7,235.56 -21.32,109.86 -32.25,202.22 -32.25,277.1 0,194.02 43.72,331.21 131.17,412.1 87.99,80.34 208.78,120.79 364,120.79l23.5 0 0 121.88 -41.54 0c-250.87,-4.37 -438.33,-61.76 -562.4,-172.17 -124.61,-110.4 -186.92,-280.93 -186.92,-511.57 0,-88.54 12.57,-189.65 37.71,-302.79 25.14,-113.14 37.71,-189.11 37.71,-227.37 0,-73.78 -25.14,-133.91 -75.97,-179.81 -50.83,-46.46 -127.35,-71.6 -230.1,-74.88l0 -131.17z"/>
    <path id="close_x0020_ellipse" class="fil2" d="M6549.28 3482.59c-102.75,-3.28 -179.27,-27.87 -230.1,-74.33 -50.83,-46.46 -75.97,-106.57 -75.97,-180.36 0,-38.26 12.57,-114.23 37.71,-227.36 25.14,-113.14 37.71,-213.7 37.71,-302.79 0,-220.81 -62.31,-386.41 -186.92,-496.81 -124.07,-110.4 -311.54,-167.79 -562.4,-172.16l-41.54 0 0 121.88 23.5 0c155.22,0 276.01,39.9 364,120.79 87.45,80.34 131.17,213.15 131.17,397.89 0,74.33 -10.93,166.7 -32.25,277.1 -21.31,109.86 -31.7,188.01 -31.7,235.02 0,90.73 26.23,165.06 79.8,223.54 53.56,57.94 116.96,101.11 190.74,128.99l0 28.42c-73.78,27.87 -137.18,71.05 -190.74,128.98 -53.56,58.48 -79.8,132.81 -79.8,223.54 0,47 10.38,125.7 31.7,235.56 21.32,109.86 32.25,202.22 32.25,277.1 0,194.02 -43.72,331.21 -131.17,412.1 -87.99,80.34 -208.78,120.79 -364,120.79l-23.5 0 0 121.88 41.54 0c250.87,-4.37 438.33,-61.76 562.4,-172.17 124.61,-110.4 186.92,-280.93 186.92,-511.57 0,-88.54 -12.57,-189.65 -37.71,-302.79 -25.14,-113.14 -37.71,-189.11 -37.71,-227.37 0,-73.78 25.14,-133.91 75.97,-179.81 50.83,-46.46 127.35,-71.6 230.1,-74.88l0 -131.17z"/>
    <g id="heart">
     <path class="fil3" d="M4839.68 2536.67c287.03,293.61 280.87,772.08 -13.69,1066.64l-1147.94 1147.85c-66.67,66.67 -175.26,66.67 -242.01,0l-1155.39 -1155.38c-142.23,-142.32 -220.62,-331.44 -220.62,-532.64 0,-201.19 78.39,-390.31 220.62,-532.63 142.31,-142.32 331.53,-220.62 532.72,-220.62 201.11,0 390.23,78.3 532.55,220.62l90.29 90.28 -138.21 138.3c-33.46,33.46 -33.46,87.63 0,121.09 16.69,16.69 38.6,24.99 60.5,24.99 21.91,0 43.81,-8.39 60.5,-25.08l349.33 -349.58c142.32,-142.32 331.44,-220.62 532.64,-220.62 204.36,0 395.71,80.53 538.71,226.78z"/>
     <path class="fil4" d="M4924.4 3024.3c2.91,47.15 -33.03,87.81 -80.19,90.72 -1.8,0.09 -3.59,0.17 -5.31,0.17 -44.93,0 -82.58,-34.92 -85.41,-80.36 -6.76,-110.48 -53.57,-214.37 -131.71,-292.51 -55.46,-55.46 -124.09,-95.68 -198.45,-116.38 -45.53,-12.67 -72.14,-59.82 -59.47,-105.35 12.67,-45.53 59.82,-72.23 105.35,-59.57 102.78,28.67 197.33,84.04 273.59,160.29 107.66,107.66 172.19,250.83 181.6,402.99zm37.65 -607.26c352.24,360.28 345.56,946.75 -14.98,1307.28l-1147.94 1147.85c-66.75,66.76 -154.38,100.04 -242.1,100.04 -87.63,0.09 -175.27,-33.29 -242.01,-100.04l-1155.38 -1155.38c-174.58,-174.59 -270.77,-406.75 -270.77,-653.65 0,-246.89 96.19,-479.06 270.77,-653.64 174.66,-174.67 406.75,-270.77 653.73,-270.77 246.81,0 478.97,96.11 653.56,270.77l90.2 90.2 90.11 -90.2c174.67,-174.67 406.83,-270.77 653.73,-270.77 250.83,0 485.56,98.85 661.08,278.3zm-136.07 1186.29c294.56,-294.56 300.72,-773.03 13.69,-1066.64 -143,-146.25 -334.35,-226.78 -538.71,-226.78 -201.19,0 -390.32,78.3 -532.64,220.62l-349.32 349.59c-16.69,16.69 -38.59,25.07 -60.5,25.07 -21.91,0 -43.82,-8.3 -60.5,-24.99 -33.46,-33.46 -33.46,-87.63 0,-121.09l138.21 -138.3 -90.28 -90.28c-142.32,-142.32 -331.44,-220.62 -532.55,-220.62 -201.2,0 -390.41,78.3 -532.72,220.62 -142.22,142.32 -220.62,331.44 -220.62,532.64 0,201.19 78.39,390.31 220.62,532.63l1155.39 1155.39c66.75,66.67 175.35,66.67 242.01,0l1147.94 -1147.85z"/>
    </g>
   </g>
  </g>
 </g>
</svg>
